<svg version="1.1" xmlns="http://www.w3.org/2000/svg" viewBox="-245.75999755859374 -1594.4961044311524 6994.13158857782 2413.8241790771485"><desc>Created with Snap</desc><defs></defs><g><g transform="matrix(20.8026,0,0,20.8026,4934.6271,-1386.1292)"><path d="M64.141,4.751H31.862c-4.566,0-8.282,3.715-8.282,8.281v2.298v62.829v4.81c0,4.566,3.716,8.282,8.282,8.282h32.278  c4.566,0,8.281-3.716,8.281-8.282v-4.81V15.33v-2.298C72.422,8.466,68.707,4.751,64.141,4.751z M52.642,84.706h-9.28v-1.5h9.28  V84.706z M70.922,76.659H25.08V16.83h45.842V76.659z" fill="#0560af" style=""></path><path d="M33.789,40.831l-3.19,1.93l2.771,4.59l3.192-1.931c0.04,0.03,0.08,0.06,0.121,0.089l-0.896,3.622l5.21,1.288l0.101-0.407  l-0.163,2.026l-1.48-1.74l-3.108,2.65l1.475,1.733L35.554,54.5l-0.328,4.067l2.266,0.182l-1.731,1.476l2.645,3.113l1.739-1.479  l-0.183,2.272l4.067,0.328l0.183-2.27l1.476,1.734l3.106-2.648l-1.474-1.734l2.273,0.183l0.258-3.202l1.968,1.974l2.319-2.318  c0.001,0,0.002,0,0.003,0.001v3.272h4.853v-3.271l2.315,2.316l3.428-3.439l-2.312-2.313h3.277V47.89h-3.277l2.312-2.313  l-3.428-3.441l-2.315,2.316v-3.271h-4.853v3.273c-0.001,0-0.001,0.001-0.002,0.001l-2.32-2.319l-1.1,1.104l0.902-3.678l-3.629-0.896  c-0.007-0.048-0.014-0.095-0.022-0.143l3.205-1.937l-2.772-4.59l-3.206,1.938c-0.038-0.028-0.077-0.058-0.115-0.085l0.895-3.629  l-5.208-1.291l-0.893,3.632c-0.048,0.007-0.095,0.014-0.142,0.021l-1.936-3.197l-4.588,2.771l1.932,3.193  c-0.031,0.042-0.063,0.084-0.093,0.126l-3.629-0.896l-1.275,5.212l3.622,0.892C33.773,40.733,33.781,40.782,33.789,40.831z   M56.567,48.38c1.067,0,1.937,0.868,1.937,1.936s-0.869,1.936-1.937,1.936s-1.936-0.868-1.936-1.936S55.5,48.38,56.567,48.38z   M42.577,58.429l-0.108-0.005c-0.725-0.058-1.268-0.694-1.209-1.417c0.055-0.681,0.63-1.213,1.311-1.213l0.109,0.005  c0.351,0.027,0.67,0.19,0.897,0.458c0.229,0.269,0.338,0.608,0.311,0.959C43.832,57.896,43.256,58.429,42.577,58.429z M48.39,55.056  l0.517,0.518l-1.259-0.101l1.73-1.475l-1.065-1.256h2.39L48.39,55.056z M48.563,47.188l-1.936-3.199  c0.028-0.038,0.057-0.077,0.085-0.115l2.709,0.667l-1.032,1.036l2.313,2.313h-3.269v3.816l-0.696-0.821l-1.733,1.475l0.182-2.267  l-4.027-0.325l0.732-2.975c0.052-0.007,0.104-0.015,0.154-0.023l1.93,3.191L48.563,47.188z M38.612,39.112  c0.149-0.607,0.526-1.119,1.063-1.443c0.365-0.222,0.784-0.339,1.209-0.339c0.828,0,1.579,0.423,2.006,1.13  c0.668,1.106,0.313,2.55-0.793,3.218c-1.079,0.653-2.566,0.279-3.215-0.792C38.559,40.349,38.463,39.719,38.612,39.112z" fill="#0560af" style=""></path><desc>Created with Snap</desc><defs></defs></g><g><g transform="matrix(1.024,0,0,-1.024,0,0)"><path d="M161 246L160 63Q160 39 155 26Q151 13 144 6Q138 -1 129 -3Q121 -4 113 -4Q86 -4 77 8Q69 20 66 62Q64 84 63 126Q62 168 61 226Q61 284 60 354Q60 424 60 502Q60 539 69 577Q78 615 103 646Q129 677 174 696Q220 715 293 715Q344 715 390 704Q436 693 471 666Q506 639 527 594Q548 549 548 482Q548 412 525 366Q502 320 460 293Q418 266 360 255Q302 244 233 244Q216 244 199 244Q182 244 161 246ZM448 484Q448 551 410 585Q373 619 286 619Q253 619 229 613Q206 608 191 594Q176 581 168 558Q161 535 161 500Q161 466 161 422Q161 379 162 341Q185 340 213 340Q242 340 267 340Q297 340 329 344Q362 348 388 362Q414 377 431 405Q448 434 448 484ZM863 411Q826 411 796 400Q767 389 730 370Q730 369 730 351Q730 333 729 305Q729 277 728 242Q728 208 727 173Q727 139 725 108Q724 77 723 56Q721 35 718 23Q716 11 712 5Q709 0 703 -1Q697 -2 690 -2Q673 -2 663 -1Q654 1 648 6Q642 12 639 23Q637 34 635 53Q633 72 631 105Q630 139 629 180Q628 222 627 269Q627 316 627 362Q627 408 627 459Q628 511 629 558Q630 606 631 643Q632 681 634 699Q636 725 643 744Q651 763 677 763Q697 763 709 749Q722 735 724 696Q726 661 727 598Q729 536 730 458Q744 469 764 478Q784 488 806 494Q828 501 851 505Q874 509 894 509Q942 509 977 486Q1013 464 1034 422Q1048 395 1055 362Q1062 330 1065 294Q1066 278 1067 262Q1068 247 1068 229Q1069 212 1069 190Q1069 168 1069 138Q1069 108 1068 82Q1067 57 1062 38Q1058 20 1048 9Q1038 -1 1020 -1Q994 -1 981 15Q969 32 969 55Q969 56 969 76Q969 96 968 122Q968 149 967 176Q967 203 966 220Q965 236 963 254Q962 273 959 292Q957 311 953 328Q949 346 943 360Q929 393 908 402Q887 411 863 411ZM1415 507Q1472 507 1517 489Q1562 472 1593 440Q1625 408 1642 362Q1659 316 1659 259Q1659 196 1639 146Q1620 96 1585 61Q1551 26 1503 7Q1456 -12 1400 -12Q1339 -12 1292 9Q1246 30 1214 66Q1183 102 1167 149Q1151 196 1151 248Q1151 305 1169 352Q1188 400 1222 434Q1257 469 1306 488Q1355 507 1415 507ZM1404 80Q1445 80 1474 94Q1503 109 1521 133Q1540 157 1548 187Q1557 218 1557 251Q1557 285 1548 314Q1540 344 1522 366Q1505 388 1477 400Q1450 413 1412 413Q1373 413 1344 400Q1315 387 1295 364Q1276 342 1266 311Q1256 280 1256 244Q1256 171 1293 125Q1331 80 1404 80ZM1983 426Q1946 426 1916 414Q1887 402 1850 378Q1850 357 1850 316Q1850 276 1849 228Q1848 181 1847 135Q1846 89 1843 58Q1841 38 1838 26Q1836 15 1831 9Q1827 3 1819 1Q1812 0 1800 0Q1788 0 1780 1Q1773 3 1768 8Q1763 14 1760 25Q1757 36 1755 55Q1753 73 1751 103Q1750 133 1749 168Q1748 204 1747 240Q1747 277 1747 308Q1747 359 1748 391Q1750 423 1754 448Q1760 490 1770 501Q1780 512 1797 512Q1822 512 1834 498Q1847 484 1850 452Q1887 484 1929 503Q1972 522 2017 522Q2060 522 2095 502Q2131 482 2154 437Q2168 410 2175 377Q2182 345 2185 309Q2186 293 2187 277Q2188 262 2188 244Q2189 227 2189 205Q2189 183 2189 153Q2189 121 2188 93Q2187 65 2182 44Q2178 24 2167 12Q2156 1 2137 1Q2091 1 2089 45Q2089 48 2089 70Q2089 93 2088 123Q2088 153 2087 184Q2087 215 2086 235Q2085 251 2083 269Q2082 288 2079 307Q2077 326 2073 343Q2069 361 2063 375Q2049 408 2028 417Q2007 426 1983 426ZM2536 184Q2501 184 2462 189Q2424 195 2379 213Q2388 152 2429 121Q2471 90 2549 90Q2577 90 2599 93Q2622 97 2639 101Q2656 106 2669 109Q2682 113 2693 113Q2707 113 2720 104Q2733 96 2733 76Q2733 51 2712 35Q2692 19 2662 9Q2633 0 2600 -4Q2567 -7 2542 -7Q2483 -7 2433 9Q2384 25 2348 57Q2312 90 2292 138Q2272 186 2272 250Q2272 312 2291 360Q2311 408 2345 441Q2379 474 2425 491Q2472 508 2526 508Q2568 508 2607 497Q2647 486 2677 464Q2708 442 2726 408Q2745 375 2745 330Q2745 290 2730 262Q2715 234 2687 217Q2660 200 2621 192Q2583 184 2536 184ZM2529 416Q2502 416 2477 409Q2452 403 2431 388Q2411 374 2397 350Q2383 327 2378 292Q2416 275 2452 268Q2488 262 2528 262Q2587 262 2615 276Q2644 291 2644 329Q2644 364 2617 390Q2591 416 2529 416ZM2950 654Q2950 594 2946 528Q2943 463 2938 401Q2951 428 2972 447Q2993 467 3018 479Q3044 491 3072 497Q3100 503 3126 503Q3171 503 3210 486Q3250 470 3279 438Q3309 407 3325 360Q3342 314 3342 254Q3342 196 3325 148Q3308 100 3274 65Q3241 31 3191 12Q3142 -7 3078 -7Q2991 -7 2941 28Q2892 63 2868 121Q2844 180 2838 256Q2833 332 2833 415Q2833 499 2836 567Q2839 635 2845 677Q2851 715 2865 731Q2879 747 2902 747Q2919 747 2929 739Q2939 732 2943 719Q2948 706 2949 689Q2950 673 2950 654ZM3098 404Q3069 404 3042 394Q3016 385 2995 365Q2975 345 2963 314Q2951 284 2951 241Q2951 165 2988 125Q3026 86 3089 86Q3115 86 3142 93Q3169 101 3191 119Q3213 138 3227 169Q3241 200 3241 246Q3241 287 3229 317Q3218 347 3198 366Q3178 386 3152 395Q3126 404 3098 404ZM3662 507Q3719 507 3764 489Q3809 472 3840 440Q3872 408 3889 362Q3906 316 3906 259Q3906 196 3886 146Q3867 96 3832 61Q3798 26 3750 7Q3703 -12 3647 -12Q3586 -12 3539 9Q3493 30 3461 66Q3430 102 3414 149Q3398 196 3398 248Q3398 305 3416 352Q3435 400 3469 434Q3504 469 3553 488Q3602 507 3662 507ZM3651 80Q3692 80 3721 94Q3750 109 3768 133Q3787 157 3795 187Q3804 218 3804 251Q3804 285 3795 314Q3787 344 3769 366Q3752 388 3724 400Q3697 413 3659 413Q3620 413 3591 400Q3562 387 3542 364Q3523 342 3513 311Q3503 280 3503 244Q3503 171 3540 125Q3578 80 3651 80ZM4226 507Q4283 507 4328 489Q4373 472 4404 440Q4436 408 4453 362Q4470 316 4470 259Q4470 196 4450 146Q4431 96 4396 61Q4362 26 4314 7Q4267 -12 4211 -12Q4150 -12 4103 9Q4057 30 4025 66Q3994 102 3978 149Q3962 196 3962 248Q3962 305 3980 352Q3999 400 4033 434Q4068 469 4117 488Q4166 507 4226 507ZM4215 80Q4256 80 4285 94Q4314 109 4332 133Q4351 157 4359 187Q4368 218 4368 251Q4368 285 4359 314Q4351 344 4333 366Q4316 388 4288 400Q4261 413 4223 413Q4184 413 4155 400Q4126 387 4106 364Q4087 342 4077 311Q4067 280 4067 244Q4067 171 4104 125Q4142 80 4215 80ZM4563 53Q4561 75 4560 119Q4559 164 4558 222Q4557 281 4557 350Q4557 419 4557 491Q4557 576 4558 630Q4559 684 4564 715Q4569 746 4580 757Q4591 769 4612 769Q4630 769 4638 757Q4646 746 4650 707Q4652 683 4653 642Q4655 602 4655 554Q4656 506 4656 454Q4657 402 4657 355L4657 274L4879 475Q4890 485 4905 494Q4921 504 4938 504Q4958 504 4968 488Q4978 473 4978 453Q4978 442 4974 432Q4971 423 4960 415L4825 304L4989 66Q4998 54 4998 39Q4998 17 4984 6Q4970 -5 4948 -5Q4932 -5 4920 1Q4908 7 4897 24L4747 241L4656 166Q4655 129 4654 100Q4653 71 4651 54Q4647 19 4638 8Q4629 -3 4606 -3Q4583 -3 4574 8Q4566 19 4563 53Z" fill="#0560af" style=""></path></g></g></g></svg>